<?xml version="1.0" encoding="utf-8"?>
<!-- Generator: Adobe Illustrator 15.0.0, SVG Export Plug-In . SVG Version: 6.00 Build 0)  -->
<!DOCTYPE svg PUBLIC "-//W3C//DTD SVG 1.1//EN" "http://www.w3.org/Graphics/SVG/1.1/DTD/svg11.dtd">
<svg version="1.1" id="Layer_1" xmlns="http://www.w3.org/2000/svg" xmlns:xlink="http://www.w3.org/1999/xlink" x="0px" y="0px"
	 width="220px" height="220px" viewBox="0 0 220 220" enable-background="new 0 0 220 220" xml:space="preserve">
<g>
	<g>
		<path fill="#2483C3" d="M110,218C50.942,218,2.894,169.955,2.894,110.896C2.894,51.836,50.942,3.789,110,3.789
			c59.059,0,107.105,48.047,107.105,107.105C217.107,169.955,169.059,218,110,218z M110,12.155c-54.446,0-98.74,44.295-98.74,98.739
			c0,54.443,44.294,98.738,98.74,98.738c54.445,0,98.74-44.295,98.74-98.738C208.74,56.45,164.445,12.155,110,12.155z"/>
	</g>
</g>
<g id="g2449" transform="translate(-145.3305,-145.3305)">
	<path id="path2451" fill="#FFFFFF" stroke="#2483C3" stroke-width="8" stroke-miterlimit="10" d="M316.309,301.104v-89.758H194.352
		v89.758H316.309z"/>
	<path id="path2455" fill="none" stroke="#2483C3" stroke-width="8" stroke-miterlimit="10" d="M195.487,212.49l52.611,53.312
		c3.901,3.932,10.996,3.885,14.814,0.037l52.574-52.921"/>
	<path id="path2457" fill="#FFFFFF" stroke="#2483C3" stroke-width="8" stroke-miterlimit="10" d="M197.293,298.149l40.312-41.209"
		/>
	<path id="path2459" fill="#FFFFFF" stroke="#2483C3" stroke-width="8" stroke-miterlimit="10" d="M312.906,297.674l-39.224-40.162"
		/>
</g>
</svg>
